<svg width="256" height="205" viewBox="0 0 256 205" fill="none" xmlns="http://www.w3.org/2000/svg">
<style>
  path { fill: black; }
  @media (prefers-color-scheme: dark) {
    path { fill: white; }
  }
</style>
<path d="M118.427 0.33432C111.726 1.05991 102.512 2.90175 95.8671 4.85522C78.1651 10.1017 59.2905 22.7156 47.4519 37.1714C33.9939 53.5806 27.2929 69.9341 24.2216 93.6549C23.8865 96.334 23.8307 96.334 21.7645 96.334C16.292 96.334 9.31169 99.627 5.45858 104.036C4.45342 105.153 2.94568 107.664 1.99636 109.618C1.99636 109.618 0.977337 112.241 0.767899 113.706C-0.11749 119.9 0.0418817 129.208 0.0418817 129.208C-0.0698028 138.808 0.0418816 146.79 0.376935 149.301C1.49378 157.227 6.07284 163.478 13.1648 166.771C16.8504 168.501 17.0179 168.557 30.3084 169.115C37.7354 169.45 44.1572 170.008 44.6598 170.287C45.1624 170.622 47.2844 172.743 49.4064 175.143C64.2604 191.608 83.3585 201.375 104.579 203.441C112.061 204.166 141.099 204.222 150.816 203.496C158.634 202.938 166.061 201.375 172.483 199.031C186.499 193.841 195.713 187.645 206.826 176.036C209.897 172.855 212.801 170.008 213.247 169.673C213.694 169.394 219.893 169.059 226.929 168.892C226.929 168.892 235.096 168.892 239.703 167.915C241.751 167.481 243.514 166.827 243.514 166.827C248.484 164.483 251.946 161.19 254.18 156.669C254.18 156.669 255.506 153.836 255.618 152.845C256.331 146.52 255.827 133.38 255.827 133.38C255.995 114.069 256.246 113.134 255.073 109.953C254.124 107.497 252.895 105.766 250.159 102.976C246.027 98.8456 242.397 97.1153 236.645 96.5014C232.848 96.1107 233.183 96.7246 232.234 88.52C229.944 68.5387 219.949 47.5527 205.709 32.7621C188.956 15.3482 169.858 5.30174 146.237 1.39478C138.81 0.111069 125.128 -0.391266 118.427 0.33432ZM143.556 22.1017C151.263 23.3854 159.192 26.0645 166.675 29.7482C183.539 38.1202 195.545 50.0085 203.81 66.7527C206.211 71.6085 209.45 79.6456 209.171 79.9805C209.059 80.0363 207.775 78.4177 206.267 76.3526C194.931 60.8922 177.843 50.176 158.243 46.1574C155.451 45.5993 151.877 44.483 150.313 43.7016C146.069 41.5249 140.038 40.0179 133.281 39.4039C123.788 38.5667 114.686 40.0737 106.03 43.8132C104.02 44.7063 99.4969 46.1016 95.9788 46.9388C83.3026 49.8969 73.3627 54.8085 63.0877 63.1806C58.6762 66.8643 52.7011 73.3387 49.4064 78.1945C47.5078 80.9294 47.7311 79.9247 50.8025 71.9992C54.6556 62.1201 60.2956 53.6364 68.672 45.1527C79.6729 34.0458 94.6944 25.9528 110.274 22.7156C117.701 21.1528 117.869 21.1528 128.2 21.0412C134.901 20.9854 138.81 21.2645 143.556 22.1017ZM152.379 58.6039C168.853 59.2178 186.778 69.0968 197.612 83.441C201.241 88.1852 205.43 96.3898 207.552 102.808C210.009 110.176 210.623 115.534 210.288 126.362C210.064 134.231 209.785 136.52 208.501 140.985C201.353 165.99 183.149 183.682 158.801 189.096C154.39 190.101 151.151 190.268 132.444 190.492C109.884 190.771 103.518 190.436 95.4762 188.371C70.9057 182.12 51.5842 160.687 47.1169 134.622C46.0559 128.259 46.0559 117.934 47.1169 111.627C51.4726 86.6782 69.9005 66.5294 94.3035 60.055C98.2683 58.9946 101.06 58.7155 111.335 58.4364C123.23 58.1015 141.49 58.1574 152.379 58.6039ZM32.207 101.692L33.4355 102.529V132.111C33.4355 151.478 33.2122 162.083 32.8771 162.808C32.3745 163.645 31.6486 163.869 29.0798 163.869C27.2929 163.869 25.5618 163.59 25.1709 163.199C24.6683 162.696 24.5008 155.106 24.5008 132.557V102.529L25.7293 101.692C26.3994 101.19 27.8513 100.799 28.9681 100.799C30.085 100.799 31.5369 101.19 32.207 101.692ZM231.564 102.027C232.457 102.808 232.569 161.078 231.675 162.808C230.782 164.371 224.751 164.371 223.857 162.752C223.467 162.027 223.355 151.813 223.411 131.943L223.578 102.25L224.974 101.525C226.426 100.799 230.391 101.134 231.564 102.027Z"/>
<path fill-rule="evenodd" clip-rule="evenodd" d="M89.9 96.669C81.2445 98.3992 72.8123 104.26 68.0657 111.739C64.5476 117.32 62.9282 122.846 62.9282 129.487C62.8724 138.25 65.2178 144.613 70.9695 151.59C76.2187 157.897 83.869 162.083 92.4687 163.311C95.4842 163.757 107.49 163.869 131.167 163.757C131.167 163.757 151.525 163.31 165.371 163.311C167.884 163.311 170.187 162.264 170.187 162.264C176.274 160.255 179.192 158.232 183.492 154.213C193.878 144.446 197.061 128.706 191.254 115.701C188.294 109.115 182.431 103.032 175.841 99.6829C175.681 99.6023 175.525 99.5235 175.372 99.4464C174.204 98.8564 173.242 98.3707 172.246 97.9702C167.605 96.1044 162.22 96.0893 131.745 96.004L130.051 95.9992C100.175 95.8876 93.3064 95.9992 89.9 96.669ZM161.436 137.609C163.357 135.689 164.698 133.298 165.346 130.708C165.835 128.756 164.16 127.101 162.148 127.101C160.136 127.101 158.577 128.822 157.646 130.605C157.293 131.283 156.835 131.91 156.284 132.46C154.862 133.882 152.934 134.68 150.923 134.68C148.912 134.68 146.983 133.882 145.561 132.46C145.01 131.91 144.553 131.283 144.199 130.605C143.269 128.822 141.709 127.101 139.697 127.101C137.686 127.101 136.011 128.756 136.499 130.708C137.148 133.298 138.489 135.689 140.409 137.609C143.198 140.396 146.979 141.962 150.923 141.962C154.866 141.962 158.648 140.396 161.436 137.609ZM116.916 127.101C118.928 127.101 120.603 128.756 120.114 130.708C119.466 133.298 118.125 135.689 116.204 137.609C113.415 140.396 109.634 141.962 105.69 141.962C101.747 141.962 97.9655 140.396 95.1772 137.609C93.2563 135.689 91.9153 133.298 91.2669 130.708C90.7784 128.756 92.4534 127.101 94.4651 127.101C96.4769 127.101 98.0364 128.822 98.9669 130.605C99.3205 131.283 99.7778 131.91 100.329 132.46C101.751 133.882 103.679 134.68 105.69 134.68C107.702 134.68 109.63 133.882 111.052 132.46C111.603 131.91 112.06 131.283 112.414 130.605C113.345 128.822 114.904 127.101 116.916 127.101Z"/>
</svg>
