<svg width="1033" height="287" viewBox="0 0 1033 287" fill="none" xmlns="http://www.w3.org/2000/svg">
  <path d="M166.071 0.46875C156.674 1.48624 143.754 4.06906 134.435 6.80844C109.611 14.1656 83.1433 31.8542 66.542 52.1255C47.6699 75.1363 38.2729 98.0688 33.966 131.333C33.4962 135.089 33.4179 135.089 30.5205 135.089C22.8463 135.089 13.0578 139.707 7.65459 145.89C6.24505 147.456 4.13074 150.978 2.7995 153.717C2.7995 153.717 1.37052 157.396 1.07683 159.45C-0.164757 168.136 0.0587308 181.189 0.0587308 181.189C-0.0978847 194.651 0.0587308 205.844 0.528578 209.366C2.09473 220.48 8.51597 229.246 18.4611 233.864C23.6294 236.29 23.8643 236.368 42.5016 237.151C52.9165 237.62 61.9219 238.403 62.6267 238.794C63.3314 239.264 66.3071 242.238 69.2828 245.604C90.1127 268.693 116.894 282.39 146.651 285.285C157.144 286.303 197.864 286.381 211.49 285.364C222.453 284.581 232.868 282.39 241.873 279.102C261.528 271.823 274.449 263.136 290.033 246.856C294.339 242.395 298.411 238.403 299.038 237.933C299.664 237.542 308.356 237.072 318.223 236.838C318.223 236.838 329.676 236.838 336.136 235.468C339.009 234.859 341.481 233.942 341.481 233.942C348.45 230.655 353.305 226.037 356.437 219.697C356.437 219.697 358.297 215.725 358.454 214.336C359.454 205.465 358.748 187.04 358.748 187.04C358.983 159.959 359.335 158.648 357.69 154.187C356.359 150.743 354.636 148.317 350.799 144.403C345.005 138.612 339.915 136.185 331.849 135.324C326.524 134.776 326.994 135.637 325.662 124.132C322.452 96.1121 308.435 66.6833 288.466 45.9424C264.974 21.5228 238.193 7.43457 205.069 1.95581C194.654 0.15567 175.468 -0.548737 166.071 0.46875ZM201.31 30.9932C212.116 32.7934 223.236 36.5502 233.729 41.7159C257.378 53.4561 274.214 70.1271 285.804 93.6075C289.171 100.417 293.713 111.687 293.321 112.157C293.165 112.235 291.364 109.965 289.249 107.07C273.353 85.3894 249.391 70.3619 221.905 64.7267C217.989 63.944 212.978 62.3786 210.785 61.2829C204.834 58.2304 196.376 56.1172 186.901 55.2563C173.589 54.0822 160.825 56.1955 148.687 61.4394C145.868 62.6917 139.525 64.6484 134.592 65.8224C116.816 69.9706 102.877 76.8582 88.4682 88.5983C82.2819 93.764 73.903 102.843 69.2828 109.652C66.6204 113.488 66.9336 112.079 71.2405 100.965C76.6438 87.1113 84.5528 75.2145 96.299 63.3178C111.726 47.7425 132.79 36.3937 154.638 31.8542C165.053 29.6627 165.288 29.6627 179.775 29.5061C189.172 29.4279 194.654 29.8192 201.31 30.9932ZM213.682 82.1804C236.783 83.0413 261.92 96.8947 277.112 117.01C282.202 123.662 288.075 135.168 291.05 144.169C294.496 154.5 295.357 162.014 294.888 177.198C294.574 188.233 294.183 191.442 292.382 197.704C282.358 232.768 256.83 257.579 222.688 265.171C216.501 266.579 211.96 266.814 185.727 267.127C154.09 267.519 145.163 267.049 133.887 264.153C99.4313 255.387 72.3368 225.332 66.0722 188.781C64.5844 179.859 64.5844 165.379 66.0722 156.535C72.1802 121.549 98.0218 93.2944 132.242 84.2153C137.802 82.7283 141.718 82.3369 156.126 81.9456C172.806 81.476 198.412 81.5542 213.682 82.1804ZM45.164 142.603L46.8868 143.777V185.259C46.8868 212.418 46.5736 227.289 46.1037 228.306C45.3989 229.481 44.3809 229.794 40.7788 229.794C38.2729 229.794 35.8454 229.402 35.2972 228.854C34.5925 228.15 34.3575 217.506 34.3575 185.885V143.777L36.0803 142.603C37.02 141.899 39.056 141.351 40.6222 141.351C42.1883 141.351 44.2243 141.899 45.164 142.603ZM324.723 143.073C325.976 144.169 326.132 225.88 324.879 228.306C323.626 230.498 315.169 230.498 313.916 228.228C313.368 227.211 313.212 212.888 313.29 185.024L313.525 143.386L315.482 142.368C317.518 141.351 323.078 141.82 324.723 143.073Z" fill="currentColor"/>
  <path fill-rule="evenodd" clip-rule="evenodd" d="M126.065 135.559C113.928 137.985 102.103 146.204 95.4471 156.691C90.5137 164.518 88.2428 172.267 88.2428 181.581C88.1644 193.869 91.4534 202.791 99.5191 212.575C106.88 221.419 117.608 227.289 129.668 229.011C133.896 229.637 150.732 229.794 183.935 229.637C183.935 229.637 212.482 229.01 231.898 229.011C235.422 229.011 238.653 227.543 238.653 227.543C247.188 224.726 251.28 221.889 257.309 216.253C271.875 202.556 276.338 180.485 268.194 162.248C264.044 153.013 255.821 144.482 246.581 139.786C246.357 139.673 246.138 139.562 245.924 139.454C244.286 138.627 242.937 137.945 241.54 137.384C235.032 134.767 227.48 134.746 184.745 134.627L182.369 134.62C140.474 134.463 130.842 134.62 126.065 135.559ZM226.381 192.97C229.074 190.278 230.955 186.925 231.864 183.292C232.549 180.555 230.2 178.235 227.379 178.235C224.558 178.235 222.371 180.647 221.066 183.148C220.57 184.099 219.929 184.978 219.157 185.75C217.162 187.743 214.458 188.862 211.638 188.862C208.818 188.862 206.113 187.743 204.119 185.75C203.346 184.978 202.705 184.099 202.209 183.148C200.904 180.647 198.718 178.235 195.896 178.235C193.075 178.235 190.726 180.555 191.412 183.292C192.321 186.925 194.201 190.278 196.895 192.97C200.805 196.878 206.108 199.074 211.638 199.074C217.167 199.074 222.471 196.878 226.381 192.97ZM163.95 178.235C166.771 178.235 169.12 180.555 168.435 183.292C167.525 186.925 165.645 190.278 162.951 192.97C159.041 196.878 153.738 199.074 148.208 199.074C142.679 199.074 137.376 196.878 133.466 192.97C130.772 190.278 128.892 186.925 127.982 183.292C127.297 180.555 129.646 178.235 132.467 178.235C135.288 178.235 137.475 180.647 138.78 183.148C139.276 184.099 139.917 184.978 140.69 185.75C142.684 187.743 145.388 188.862 148.208 188.862C151.029 188.862 153.733 187.743 155.727 185.75C156.5 184.978 157.141 184.099 157.637 183.148C158.942 180.647 161.129 178.235 163.95 178.235Z" fill="currentColor"/>
  <path d="M457.835 90.643V89.3453C457.835 87.6152 456.97 86.1734 455.24 85.02C453.606 83.7704 451.972 83.1456 450.338 83.1456H431.306C429.576 83.1456 428.086 83.7704 426.837 85.02C425.683 86.2695 425.106 87.7594 425.106 89.4895C425.106 91.1236 425.683 92.5173 426.837 93.6707C428.086 94.8242 429.576 95.4009 431.306 95.4009H459.421C463.939 95.4009 468.168 96.2659 472.109 97.9961C476.05 99.6301 479.462 101.937 482.346 104.917C485.325 107.8 487.632 111.213 489.266 115.153C490.996 119.094 491.861 123.275 491.861 127.697C491.861 132.118 490.996 136.3 489.266 140.241C487.632 144.181 485.325 147.642 482.346 150.621C479.462 153.601 476.05 155.956 472.109 157.686C468.168 159.32 463.939 160.137 459.421 160.137H425.539C421.021 160.137 416.792 159.32 412.851 157.686C408.91 155.956 405.45 153.601 402.47 150.621C399.587 147.642 397.28 144.181 395.55 140.241C393.916 136.3 393.099 132.118 393.099 127.697V124.381H425.539V125.678C425.539 127.409 426.356 128.898 427.99 130.148C429.72 131.301 431.402 131.878 433.036 131.878H452.068C453.798 131.878 455.24 131.253 456.393 130.004C457.643 128.754 458.268 127.264 458.268 125.534C458.268 123.9 457.643 122.507 456.393 121.353C455.24 120.2 453.798 119.623 452.068 119.623H423.953C419.435 119.623 415.206 118.806 411.265 117.172C407.324 115.442 403.864 113.135 400.884 110.251C398.001 107.272 395.694 103.811 393.964 99.8704C392.33 95.9295 391.513 91.7483 391.513 87.3268C391.513 82.8092 392.33 78.628 393.964 74.7833C395.694 70.8424 398.001 67.3821 400.884 64.4024C403.864 61.4227 407.324 59.1158 411.265 57.4818C415.206 55.7516 419.435 54.8865 423.953 54.8865H457.835C462.353 54.8865 466.582 55.7516 470.523 57.4818C474.464 59.1158 477.876 61.4227 480.76 64.4024C483.739 67.3821 486.046 70.8424 487.68 74.7833C489.41 78.628 490.275 82.8092 490.275 87.3268V90.643H457.835ZM500.636 157.975V57.0492H584.692V82.2806H534.23V94.8242H576.33V120.055H534.23V132.743H584.692V157.975H500.636ZM656.472 57.0492C662.239 57.0492 667.67 58.1546 672.764 60.3653C677.955 62.5761 682.424 65.6038 686.173 69.4486C690.018 73.1973 693.046 77.6668 695.256 82.8573C697.467 87.9516 698.573 93.3824 698.573 99.1495C698.573 103.283 697.948 107.32 696.698 111.261C695.545 115.105 693.911 118.71 691.796 122.074C689.681 125.342 687.134 128.274 684.155 130.869C681.175 133.464 677.907 135.579 674.35 137.213L690.21 157.975H653.156L641.189 141.106H631.241V157.975H597.647V57.0492H656.472ZM656.472 90.643H631.241V107.512H656.472C658.875 107.512 660.894 106.695 662.528 105.061C664.162 103.427 664.979 101.456 664.979 99.1495C664.979 96.7465 664.162 94.728 662.528 93.094C660.894 91.46 658.875 90.643 656.472 90.643ZM708.597 157.975V57.0492H792.654V82.2806H742.191V94.8242H784.291V120.055H742.191V132.743H792.654V157.975H708.597ZM805.609 157.975V57.0492H839.202L872.94 104.917V57.0492H906.534V157.975H872.94L839.202 110.107V157.975H805.609ZM971.454 162.3C963.957 162.3 956.844 160.858 950.116 157.975C943.483 155.091 937.668 151.198 932.67 146.296C927.768 141.298 923.875 135.483 920.991 128.85C918.108 122.218 916.666 115.153 916.666 107.656C916.666 100.159 918.108 93.094 920.991 86.4618C923.875 79.7334 927.768 73.9182 932.67 69.0161C937.668 64.0179 943.483 60.077 950.116 57.1934C956.844 54.3098 963.957 52.868 971.454 52.868C978.951 52.868 986.016 54.3098 992.648 57.1934C999.281 60.077 1005.05 64.0179 1009.95 69.0161C1014.95 73.9182 1018.89 79.7334 1021.77 86.4618C1024.66 93.094 1026.1 100.159 1026.1 107.656C1026.1 115.153 1024.66 122.218 1021.77 128.85C1018.89 135.483 1014.95 141.298 1009.95 146.296C1005.05 151.198 999.281 155.091 992.648 157.975C986.016 160.858 978.951 162.3 971.454 162.3ZM971.454 128.995C974.338 128.995 977.029 128.466 979.528 127.409C982.123 126.255 984.382 124.717 986.304 122.795C988.227 120.873 989.717 118.614 990.774 116.018C991.927 113.423 992.504 110.636 992.504 107.656C992.504 104.676 991.927 101.889 990.774 99.2937C989.717 96.6985 988.227 94.4397 986.304 92.5173C984.382 90.4988 982.123 88.9609 979.528 87.9036C977.029 86.7501 974.338 86.1734 971.454 86.1734C968.57 86.1734 965.831 86.7501 963.236 87.9036C960.641 88.9609 958.382 90.4988 956.459 92.5173C954.537 94.4397 952.999 96.6985 951.846 99.2937C950.788 101.889 950.26 104.676 950.26 107.656C950.26 110.636 950.788 113.423 951.846 116.018C952.999 118.614 954.537 120.873 956.459 122.795C958.382 124.717 960.641 126.255 963.236 127.409C965.831 128.466 968.57 128.995 971.454 128.995Z" fill="currentColor"/>
  <path d="M426.24 196.177V195.504C426.24 194.607 425.792 193.86 424.895 193.262C424.048 192.615 423.201 192.291 422.354 192.291H412.489C411.592 192.291 410.82 192.615 410.173 193.262C409.575 193.91 409.276 194.682 409.276 195.579C409.276 196.426 409.575 197.148 410.173 197.746C410.82 198.344 411.592 198.643 412.489 198.643H427.062C429.404 198.643 431.596 199.091 433.639 199.988C435.681 200.835 437.45 202.031 438.945 203.575C440.489 205.07 441.685 206.839 442.532 208.881C443.429 210.924 443.877 213.091 443.877 215.383C443.877 217.675 443.429 219.842 442.532 221.885C441.685 223.928 440.489 225.721 438.945 227.266C437.45 228.81 435.681 230.031 433.639 230.928C431.596 231.775 429.404 232.198 427.062 232.198H409.5C407.158 232.198 404.966 231.775 402.923 230.928C400.881 230.031 399.087 228.81 397.543 227.266C396.048 225.721 394.852 223.928 393.955 221.885C393.109 219.842 392.685 217.675 392.685 215.383V213.664H409.5V214.337C409.5 215.234 409.923 216.006 410.77 216.654C411.667 217.252 412.539 217.55 413.386 217.55H423.251C424.148 217.55 424.895 217.227 425.493 216.579C426.141 215.931 426.464 215.159 426.464 214.262C426.464 213.415 426.141 212.693 425.493 212.095C424.895 211.497 424.148 211.198 423.251 211.198H408.678C406.336 211.198 404.144 210.775 402.101 209.928C400.059 209.031 398.265 207.835 396.721 206.341C395.226 204.796 394.03 203.002 393.133 200.96C392.286 198.917 391.863 196.75 391.863 194.458C391.863 192.116 392.286 189.949 393.133 187.956C394.03 185.913 395.226 184.12 396.721 182.575C398.265 181.031 400.059 179.835 402.101 178.988C404.144 178.091 406.336 177.643 408.678 177.643H426.24C428.582 177.643 430.774 178.091 432.817 178.988C434.859 179.835 436.628 181.031 438.123 182.575C439.667 184.12 440.863 185.913 441.71 187.956C442.607 189.949 443.055 192.116 443.055 194.458V196.177H426.24ZM459.966 178.764L468.71 204.921H473.717L482.386 178.764H500.696L483.283 231.077H464.973L467.888 222.333H456.155L441.657 178.764H459.966ZM533.564 196.177V195.504C533.564 194.607 533.115 193.86 532.219 193.262C531.372 192.615 530.525 192.291 529.678 192.291H519.813C518.916 192.291 518.144 192.615 517.496 193.262C516.898 193.91 516.599 194.682 516.599 195.579C516.599 196.426 516.898 197.148 517.496 197.746C518.144 198.344 518.916 198.643 519.813 198.643H534.386C536.728 198.643 538.92 199.091 540.962 199.988C543.005 200.835 544.774 202.031 546.268 203.575C547.813 205.07 549.009 206.839 549.856 208.881C550.752 210.924 551.201 213.091 551.201 215.383C551.201 217.675 550.752 219.842 549.856 221.885C549.009 223.928 547.813 225.721 546.268 227.266C544.774 228.81 543.005 230.031 540.962 230.928C538.92 231.775 536.728 232.198 534.386 232.198H516.824C514.482 232.198 512.29 231.775 510.247 230.928C508.204 230.031 506.411 228.81 504.866 227.266C503.372 225.721 502.176 223.928 501.279 221.885C500.432 219.842 500.009 217.675 500.009 215.383V213.664H516.824V214.337C516.824 215.234 517.247 216.006 518.094 216.654C518.991 217.252 519.863 217.55 520.71 217.55H530.575C531.471 217.55 532.219 217.227 532.817 216.579C533.464 215.931 533.788 215.159 533.788 214.262C533.788 213.415 533.464 212.693 532.817 212.095C532.219 211.497 531.471 211.198 530.575 211.198H516.002C513.66 211.198 511.468 210.775 509.425 209.928C507.382 209.031 505.589 207.835 504.044 206.341C502.55 204.796 501.354 203.002 500.457 200.96C499.61 198.917 499.187 196.75 499.187 194.458C499.187 192.116 499.61 189.949 500.457 187.956C501.354 185.913 502.55 184.12 504.044 182.575C505.589 181.031 507.382 179.835 509.425 178.988C511.468 178.091 513.66 177.643 516.002 177.643H533.564C535.905 177.643 538.098 178.091 540.14 178.988C542.183 179.835 543.952 181.031 545.446 182.575C546.991 184.12 548.187 185.913 549.034 187.956C549.93 189.949 550.379 192.116 550.379 194.458V196.177H533.564ZM605.016 178.764V196.177H587.603V231.077H570.115V196.177H552.703V178.764H605.016ZM609.503 231.077V178.764H653.072V191.842H626.915V198.344H648.737V211.422H626.915V217.999H653.072V231.077H609.503ZM674.958 178.764L695.285 199.39L715.612 178.764H733.025V231.077H715.612V202.828L695.285 222.333L674.958 202.828V231.077H657.545V178.764H674.958ZM771.2 196.177V195.504C771.2 194.607 770.752 193.86 769.855 193.262C769.008 192.615 768.161 192.291 767.314 192.291H757.45C756.553 192.291 755.78 192.615 755.133 193.262C754.535 193.91 754.236 194.682 754.236 195.579C754.236 196.426 754.535 197.148 755.133 197.746C755.78 198.344 756.553 198.643 757.45 198.643H772.022C774.364 198.643 776.556 199.091 778.599 199.988C780.642 200.835 782.41 202.031 783.905 203.575C785.45 205.07 786.645 206.839 787.492 208.881C788.389 210.924 788.837 213.091 788.837 215.383C788.837 217.675 788.389 219.842 787.492 221.885C786.645 223.928 785.45 225.721 783.905 227.266C782.41 228.81 780.642 230.031 778.599 230.928C776.556 231.775 774.364 232.198 772.022 232.198H754.46C752.119 232.198 749.926 231.775 747.884 230.928C745.841 230.031 744.047 228.81 742.503 227.266C741.008 225.721 739.813 223.928 738.916 221.885C738.069 219.842 737.645 217.675 737.645 215.383V213.664H754.46V214.337C754.46 215.234 754.884 216.006 755.731 216.654C756.627 217.252 757.499 217.55 758.346 217.55H768.211C769.108 217.55 769.855 217.227 770.453 216.579C771.101 215.931 771.425 215.159 771.425 214.262C771.425 213.415 771.101 212.693 770.453 212.095C769.855 211.497 769.108 211.198 768.211 211.198H753.638C751.297 211.198 749.104 210.775 747.062 209.928C745.019 209.031 743.225 207.835 741.681 206.341C740.186 204.796 738.99 203.002 738.094 200.96C737.247 198.917 736.823 196.75 736.823 194.458C736.823 192.116 737.247 189.949 738.094 187.956C738.99 185.913 740.186 184.12 741.681 182.575C743.225 181.031 745.019 179.835 747.062 178.988C749.104 178.091 751.297 177.643 753.638 177.643H771.2C773.542 177.643 775.734 178.091 777.777 178.988C779.82 179.835 781.588 181.031 783.083 182.575C784.627 184.12 785.823 185.913 786.67 187.956C787.567 189.949 788.015 192.116 788.015 194.458V196.177H771.2Z" fill="currentColor"/>
</svg>
